<?xml version="1.0" encoding="UTF-8" standalone="no"?>
<!-- Created with Inkscape (http://www.inkscape.org/) -->

<svg
   width="512"
   height="512"
   viewBox="0 0 135.46667 135.46667"
   version="1.1"
   id="svg1"
   xml:space="preserve"
   inkscape:version="1.4 (86a8ad7, 2024-10-11)"
   sodipodi:docname="double-bed-icon.svg"
   xmlns:inkscape="http://www.inkscape.org/namespaces/inkscape"
   xmlns:sodipodi="http://sodipodi.sourceforge.net/DTD/sodipodi-0.dtd"
   xmlns="http://www.w3.org/2000/svg"
   xmlns:svg="http://www.w3.org/2000/svg"><sodipodi:namedview
     id="namedview1"
     pagecolor="#505050"
     bordercolor="#eeeeee"
     borderopacity="1"
     inkscape:showpageshadow="0"
     inkscape:pageopacity="0"
     inkscape:pagecheckerboard="0"
     inkscape:deskcolor="#505050"
     inkscape:document-units="mm"
     inkscape:zoom="0.69670057"
     inkscape:cx="241.13659"
     inkscape:cy="228.93623"
     inkscape:window-width="1366"
     inkscape:window-height="705"
     inkscape:window-x="1358"
     inkscape:window-y="-8"
     inkscape:window-maximized="1"
     inkscape:current-layer="layer1" /><defs
     id="defs1" /><g
     inkscape:label="Layer 1"
     inkscape:groupmode="layer"
     id="layer1"><path
       style="fill:#000000"
       d="m 21.814747,130.85667 c -0.560013,-0.71194 -0.637507,-1.2354 -0.637507,-4.30627 v -3.49582 h -3.215232 c -3.510184,0 -4.535455,-0.2905 -5.055804,-1.43255 -0.475289,-1.04314 -0.456388,-10.89759 0.02292,-11.94956 0.257722,-0.56564 0.753071,-0.90378 1.69175,-1.15484 l 1.327321,-0.355 0.003,-8.471852 c 0.0029,-8.22758 0.0237,-8.516197 0.72071,-10.009807 0.744759,-1.595926 2.760975,-3.664693 4.048791,-4.15432 l 0.741665,-0.28198 0.08813,-14.853145 0.08813,-14.853145 0.866907,-1.765396 c 1.106198,-2.252694 3.278341,-4.424838 5.437983,-5.437983 l 1.692474,-0.793984 h 39.833021 39.833019 l 1.69382,0.831887 c 2.29965,1.12943 4.20024,3.074912 5.34741,5.473726 l 0.95614,1.999341 0.0882,14.67839 0.0882,14.67839 1.05805,0.50208 c 1.33356,0.632815 3.1126,2.585369 3.86467,4.241589 0.52014,1.145472 0.5785,2.121194 0.58458,9.77392 l 0.007,8.501419 1.06324,0.19946 c 0.60771,0.11401 1.33251,0.5418 1.69175,0.99849 0.57991,0.73723 0.62851,1.22576 0.62851,6.31783 v 5.51882 l -0.89911,0.89911 c -0.88553,0.88553 -0.95059,0.89911 -4.30628,0.89911 h -3.40716 v 3.49582 c 0,3.07087 -0.0775,3.59433 -0.6375,4.30627 l -0.63751,0.81046 h -7.38008 c -4.05904,0 -7.61321,-0.12477 -7.89816,-0.27727 -0.28495,-0.1525 -1.754503,-2.09032 -3.265683,-4.30627 l -2.747599,-4.02901 H 69.469011 43.743774 l -2.747599,4.02901 c -1.511179,2.21595 -2.980736,4.15377 -3.265682,4.30627 -0.284946,0.1525 -3.839119,0.27727 -7.898162,0.27727 h -7.380078 z m 14.367833,-5.41826 c 0.650735,-0.88817 1.286142,-1.78787 1.412015,-1.99934 0.179847,-0.30214 -1.026618,-0.38449 -5.633521,-0.38449 h -5.86238 v 1.99935 1.99934 h 4.450366 4.450365 z m 76.65675,-0.38448 v -1.99935 h -5.86238 c -4.6069,0 -5.81337,0.0824 -5.63352,0.38449 0.12587,0.21147 0.76128,1.11117 1.41201,1.99934 l 1.18316,1.61486 h 4.45036 4.45037 z m 8.61254,-9.38153 v -2.46072 H 69.469011 17.486149 v 2.46072 2.46073 h 51.982862 51.982859 z m -3.13418,-15.47086 c -0.0852,-7.217881 -0.15605,-8.180962 -0.65773,-8.945829 -1.19583,-1.823162 1.44553,-1.728578 -48.257967,-1.728057 -42.806766,4.49e-4 -45.676403,0.03354 -46.686799,0.538284 -2.00876,1.003488 -2.152119,1.699926 -2.152658,10.457612 l -4.78e-4,7.76667 H 69.487632 118.41321 Z M 31.99924,80.530142 c 0.105394,-3.681511 0.195225,-4.226172 0.929057,-5.633052 0.917592,-1.759182 2.661485,-3.461437 4.614298,-4.504125 1.303025,-0.69574 1.464374,-0.705402 11.779212,-0.705402 10.033531,0 10.515811,0.02669 11.879901,0.657422 2.038863,0.942739 3.813747,2.671315 4.788431,4.663498 0.758496,1.55031 0.858364,2.134369 0.968304,5.662915 l 0.122582,3.934323 h 2.424357 2.424357 v -3.525756 c 0,-2.856541 0.125745,-3.861841 0.662486,-5.29641 0.893912,-2.389196 3.198105,-4.693389 5.587301,-5.587301 1.672605,-0.625802 2.297382,-0.662487 11.282894,-0.662487 8.811107,0 9.635455,0.0461 11.18388,0.625439 2.23087,0.834678 4.27419,2.689946 5.32255,4.832699 0.76793,1.569605 0.86616,2.140967 0.97641,5.679493 l 0.12258,3.934323 h 2.73195 2.73195 V 70.908047 c 0,-11.667604 -0.0706,-13.866538 -0.47607,-14.837063 -0.60918,-1.457978 -1.5169,-2.422847 -3.06123,-3.253957 l -1.23036,-0.662146 H 69.469011 c -36.796039,0 -38.337208,0.02248 -39.371635,0.574264 -1.505469,0.803049 -2.424366,1.698819 -3.105843,3.027676 -0.549715,1.071924 -0.585248,1.982331 -0.585248,14.995056 v 13.853844 h 2.738139 2.738139 z m 30.08759,0.810857 c 0,-2.812334 -0.09557,-3.434759 -0.689665,-4.491815 -1.295924,-2.305785 -1.735701,-2.393962 -11.93972,-2.393962 -9.918355,0 -10.413863,0.08265 -11.753252,1.960365 -0.597697,0.837924 -0.699239,1.427073 -0.78868,4.575941 l -0.102658,3.614193 H 49.449842 62.08683 Z m 39.98176,-0.04188 c -0.004,-2.853451 -0.0992,-3.470828 -0.69208,-4.504945 -1.30212,-2.271234 -1.645575,-2.338952 -11.862805,-2.338952 -9.994699,0 -10.481987,0.0808 -11.822695,1.960365 -0.597697,0.837924 -0.699239,1.427073 -0.78868,4.575941 l -0.102658,3.614193 h 12.636988 12.63699 z"
       id="path1" /></g></svg>
