<?xml version="1.0" encoding="UTF-8" standalone="no"?>
<!-- Created with Inkscape (http://www.inkscape.org/) -->

<svg
   width="512"
   height="512"
   viewBox="0 0 135.46667 135.46667"
   version="1.1"
   id="svg1"
   xml:space="preserve"
   inkscape:version="1.4 (86a8ad7, 2024-10-11)"
   sodipodi:docname="shower-icon.svg"
   xmlns:inkscape="http://www.inkscape.org/namespaces/inkscape"
   xmlns:sodipodi="http://sodipodi.sourceforge.net/DTD/sodipodi-0.dtd"
   xmlns="http://www.w3.org/2000/svg"
   xmlns:svg="http://www.w3.org/2000/svg"><sodipodi:namedview
     id="namedview1"
     pagecolor="#505050"
     bordercolor="#eeeeee"
     borderopacity="1"
     inkscape:showpageshadow="0"
     inkscape:pageopacity="0"
     inkscape:pagecheckerboard="0"
     inkscape:deskcolor="#505050"
     inkscape:document-units="mm"
     inkscape:zoom="0.49264169"
     inkscape:cx="645.49957"
     inkscape:cy="76.120232"
     inkscape:window-width="1366"
     inkscape:window-height="705"
     inkscape:window-x="1358"
     inkscape:window-y="-8"
     inkscape:window-maximized="1"
     inkscape:current-layer="layer1" /><defs
     id="defs1" /><g
     inkscape:label="Layer 1"
     inkscape:groupmode="layer"
     id="layer1"><path
       style="fill:#000000"
       d="m 36.977196,127.79935 c -1.040016,-0.52054 -1.72796,-1.89755 -1.48978,-2.98197 0.182582,-0.8313 2.430548,-4.77463 2.721858,-4.77463 0.272765,0 1.997076,2.83566 2.498462,4.10876 0.230913,0.58633 0.358473,1.38709 0.283465,1.77946 -0.142874,0.7474 -1.261153,2.04669 -1.766889,2.05289 -0.162057,0.002 -0.532775,0.062 -0.823816,0.13332 -0.291042,0.0713 -0.931527,-0.0717 -1.4233,-0.31783 z m 13.996448,0.1559 c -1.027641,-0.41894 -1.568702,-1.03194 -1.746268,-1.97845 -0.214096,-1.14123 0.169843,-2.22703 1.569998,-4.44002 l 1.147246,-1.81326 1.229906,2.06666 c 1.33037,2.23549 1.705712,3.51329 1.336376,4.54951 -0.459245,1.28847 -2.289308,2.12431 -3.537258,1.61556 z m 13.588401,-0.0906 c -1.070918,-0.46609 -1.687592,-1.36865 -1.687592,-2.46995 0,-0.94196 0.320232,-1.68109 1.784034,-4.11771 l 0.92749,-1.54389 0.516964,0.75014 c 0.807663,1.17196 2.327761,4.38682 2.327761,4.923 0,0.9093 -0.825487,2.08511 -1.728866,2.46256 -1.07861,0.45067 -1.094825,0.45064 -2.139791,-0.004 z M 98.796242,86.109941 98.719186,43.975047 98.129645,41.85838 c -0.773022,-2.775434 -2.624931,-6.48669 -4.220242,-8.457436 -2.846442,-3.516315 -7.32471,-6.383858 -11.85266,-7.589543 -2.508682,-0.668003 -7.526599,-0.791261 -10.054166,-0.246967 -4.404378,0.948454 -8.38806,3.21688 -11.498656,6.547677 -3.144677,3.367288 -4.920733,6.91179 -5.698699,11.372977 -0.512975,2.941619 -0.502904,3.511872 0.06558,3.713479 1.269633,0.450259 1.389063,0.800768 1.389063,4.076696 v 3.117161 l 2.467847,1.16903 c 5.361171,2.539611 9.015693,7.582596 9.595414,13.240998 l 0.180647,1.763219 h 1.034429 c 2.207662,0 3.19908,2.66301 1.518028,4.077521 l -0.81405,0.684978 H 51.853592 33.464999 l -0.773397,-0.773397 c -1.084858,-1.084858 -1.069042,-2.370378 0.04065,-3.304124 0.528837,-0.444987 1.13139,-0.684978 1.719792,-0.684978 0.844531,0 0.906052,-0.05811 0.910336,-0.859896 0.0089,-1.65847 0.784178,-4.514591 1.768355,-6.514279 1.459765,-2.966004 4.497296,-5.980777 7.47847,-7.422439 1.22648,-0.593112 2.38509,-1.078386 2.574688,-1.078386 0.264628,0 0.344725,-0.75892 0.344725,-3.266284 0,-3.416529 0.115225,-3.776354 1.348185,-4.210134 0.321052,-0.112952 0.463028,-0.680402 0.592869,-2.369586 0.478961,-6.231116 3.358625,-12.344332 8.002286,-16.987993 7.216095,-7.216095 17.949177,-9.802167 27.528487,-6.632824 8.114522,2.684714 14.351328,8.738685 17.192803,16.688791 1.74302,4.876745 1.68833,3.291536 1.69006,48.99105 l 0.002,41.341139 h -2.50579 -2.505782 z M 36.445418,109.04659 c -1.211624,-1.01951 -1.302611,-2.09397 -0.341382,-4.03134 0.436162,-0.87909 1.089239,-2.03427 1.451282,-2.56706 l 0.658259,-0.96872 0.784857,1.1457 c 2.203545,3.21666 2.516709,4.95093 1.142206,6.32543 -1.031597,1.0316 -2.536848,1.0707 -3.695222,0.096 z m 13.570285,-0.22217 c -1.342594,-1.3426 -1.183988,-2.41574 0.852513,-5.76818 0.795059,-1.30881 1.019559,-1.52006 1.30388,-1.22695 0.694921,0.71643 2.492945,4.3448 2.496552,5.03799 0.0087,1.67313 -1.201108,2.85672 -2.920014,2.85672 -0.594951,0 -1.090692,-0.25734 -1.732931,-0.89958 z m 13.990329,0.37763 c -1.578596,-0.96251 -1.4972,-2.81229 0.249037,-5.65954 0.623109,-1.01598 1.237668,-1.85647 1.365688,-1.86777 0.420848,-0.0371 2.586046,4.00842 2.73343,5.10725 0.129751,0.96737 0.05063,1.16873 -0.789221,2.00858 -1.09731,1.09731 -2.221032,1.22724 -3.558934,0.41148 z M 36.455873,90.534559 c -1.499502,-1.261747 -1.275253,-2.754166 0.949852,-6.321435 l 0.81182,-1.301504 1.001875,1.566087 c 0.551031,0.861348 1.21778,2.134246 1.481664,2.828661 0.425527,1.119782 0.437938,1.362737 0.109737,2.148233 -0.758449,1.815223 -2.861377,2.336715 -4.354948,1.079958 z m 13.655864,0.04846 c -0.830031,-0.769247 -1.092916,-1.556371 -0.886779,-2.655176 0.207965,-1.108548 2.5429,-5.026685 2.826529,-4.743056 0.120496,0.120496 0.759488,1.167371 1.419983,2.326389 1.485588,2.606867 1.585835,3.760263 0.427502,4.918596 -1.020827,1.020827 -2.774531,1.091789 -3.787235,0.153247 z M 63.64785,90.429772 c -1.280621,-1.280621 -0.952645,-2.942953 1.277724,-6.476085 l 0.656007,-1.039182 0.91938,1.432353 c 1.092363,1.70185 1.929741,3.533033 1.929741,4.219964 0,1.452142 -1.364504,2.636348 -3.037738,2.636348 -0.721225,0 -1.171085,-0.199369 -1.745114,-0.773398 z"
       id="path1" /></g></svg>
