<?xml version="1.0" encoding="UTF-8" standalone="no"?>
<!-- Created with Inkscape (http://www.inkscape.org/) -->

<svg
   width="512"
   height="512"
   viewBox="0 0 135.46667 135.46667"
   version="1.1"
   id="svg1"
   xml:space="preserve"
   inkscape:version="1.4 (86a8ad7, 2024-10-11)"
   sodipodi:docname="size-icon.svg"
   xmlns:inkscape="http://www.inkscape.org/namespaces/inkscape"
   xmlns:sodipodi="http://sodipodi.sourceforge.net/DTD/sodipodi-0.dtd"
   xmlns="http://www.w3.org/2000/svg"
   xmlns:svg="http://www.w3.org/2000/svg"><sodipodi:namedview
     id="namedview1"
     pagecolor="#505050"
     bordercolor="#eeeeee"
     borderopacity="1"
     inkscape:showpageshadow="0"
     inkscape:pageopacity="0"
     inkscape:pagecheckerboard="0"
     inkscape:deskcolor="#505050"
     inkscape:document-units="mm"
     inkscape:zoom="0.49264169"
     inkscape:cx="-10.149364"
     inkscape:cy="398.87001"
     inkscape:window-width="1366"
     inkscape:window-height="705"
     inkscape:window-x="1358"
     inkscape:window-y="-8"
     inkscape:window-maximized="1"
     inkscape:current-layer="layer1" /><defs
     id="defs1" /><g
     inkscape:label="Layer 1"
     inkscape:groupmode="layer"
     id="layer1"><path
       style="fill:#000000"
       d="m 26.357625,128.07902 c -0.906745,-0.37943 -1.120631,-1.3132 -1.120631,-4.89236 v -3.27007 l -3.695474,-0.0861 c -4.107602,-0.0957 -4.41041,-0.21437 -4.672651,-1.83037 -0.109978,-0.67771 -0.01134,-1.08317 0.381762,-1.56918 0.511773,-0.63274 0.658657,-0.65832 4.25821,-0.74149 l 3.728153,-0.0861 V 72.710522 l 0,-42.892743 -2.739769,2.696077 c -2.319502,2.282513 -2.869253,2.696077 -3.583901,2.696077 -0.983633,0 -2.142996,-1.002581 -2.142996,-1.853196 0,-0.304883 0.169194,-0.875842 0.375986,-1.268798 0.607509,-1.154412 8.936287,-9.252627 9.715829,-9.446868 0.426827,-0.106354 0.993585,-0.01938 1.455208,0.223318 1.241576,0.652754 9.290573,8.943048 9.500554,9.785367 0.378745,1.519297 -0.918322,2.822012 -2.431612,2.442201 -0.419534,-0.105297 -1.854207,-1.282143 -3.326802,-2.728939 l -2.589164,-2.543804 0,42.912024 0,42.912022 h 42.923679 42.923684 l -2.58269,-2.59242 c -2.06282,-2.07058 -2.61405,-2.78566 -2.73848,-3.55243 -0.12938,-0.79726 -0.0404,-1.07546 0.5251,-1.64092 0.45346,-0.45345 0.9695,-0.68089 1.54488,-0.68089 0.7677,0 1.40303,0.53904 5.70057,4.83658 4.37956,4.37955 4.83659,4.92176 4.83659,5.738 0,0.81423 -0.45429,1.35838 -4.69636,5.62537 -2.58299,2.59817 -4.96655,4.79206 -5.2968,4.8753 -0.85361,0.21517 -2.17931,-0.40761 -2.46452,-1.15776 -0.49406,-1.29949 -0.26819,-1.71168 2.45375,-4.47773 l 2.69608,-2.73977 -42.892744,0 H 29.510323 l -0.08614,3.69548 c -0.09423,4.04254 -0.217843,4.38349 -1.677187,4.62624 -0.434614,0.0723 -1.059829,0.0186 -1.389367,-0.11929 z m 10.583332,-19.05838 c -0.329538,-0.13329 -0.716491,-0.55094 -0.859895,-0.92812 -0.166079,-0.43682 -0.260735,-12.387486 -0.260735,-32.918419 0,-31.341165 0.01399,-32.249904 0.50576,-32.857253 l 0.505761,-0.624624 32.104133,-0.07612 c 17.657274,-0.04187 32.490789,-0.0068 32.963369,0.07801 1.76562,0.316723 1.66795,-1.777073 1.59126,34.112803 -0.0656,30.706584 -0.0941,32.434004 -0.54168,32.881614 -0.44783,0.44783 -2.16353,0.4751 -32.940624,0.52345 -19.177264,0.0301 -32.713456,-0.0482 -33.067349,-0.19134 z M 99.320323,75.426597 V 45.793265 H 69.686991 40.05366 v 29.633332 29.633333 h 29.633331 29.633332 z"
       id="path1" /></g></svg>
