<?xml version="1.0" encoding="UTF-8" standalone="no"?>
<!-- Created with Inkscape (http://www.inkscape.org/) -->

<svg
   width="512"
   height="512"
   viewBox="0 0 135.46667 135.46667"
   version="1.1"
   id="svg1"
   xml:space="preserve"
   inkscape:version="1.4 (86a8ad7, 2024-10-11)"
   sodipodi:docname="sofa-icon.svg"
   xmlns:inkscape="http://www.inkscape.org/namespaces/inkscape"
   xmlns:sodipodi="http://sodipodi.sourceforge.net/DTD/sodipodi-0.dtd"
   xmlns="http://www.w3.org/2000/svg"
   xmlns:svg="http://www.w3.org/2000/svg"><sodipodi:namedview
     id="namedview1"
     pagecolor="#505050"
     bordercolor="#eeeeee"
     borderopacity="1"
     inkscape:showpageshadow="0"
     inkscape:pageopacity="0"
     inkscape:pagecheckerboard="0"
     inkscape:deskcolor="#505050"
     inkscape:document-units="mm"
     inkscape:zoom="0.69670057"
     inkscape:cx="227.50089"
     inkscape:cy="312.18577"
     inkscape:window-width="1366"
     inkscape:window-height="705"
     inkscape:window-x="-8"
     inkscape:window-y="-8"
     inkscape:window-maximized="1"
     inkscape:current-layer="layer1" /><defs
     id="defs1" /><g
     inkscape:label="Layer 1"
     inkscape:groupmode="layer"
     id="layer1"><path
       style="fill:#000000;stroke-width:0.994094"
       d="m 15.183119,133.27785 c -0.616225,-0.61623 -0.608368,-0.64801 2.994445,-12.11213 0.132836,-0.42269 -0.143575,-0.46029 -3.383091,-0.46029 -3.083589,0 -3.582552,-0.0605 -3.963043,-0.481 -0.39245,-0.43365 -0.435296,-1.73631 -0.435296,-13.23413 V 94.237153 L 9.3813677,93.66683 C 7.9321199,92.852303 6.274599,90.951792 5.3993271,89.101034 3.5418634,85.173421 4.3686927,80.612119 7.525251,77.373106 c 2.1553708,-2.211664 6.083081,-3.497489 8.996056,-2.94506 2.069003,0.392382 2.028483,0.41687 2.028483,-1.225734 0,-4.918384 3.432322,-10.382905 8.022147,-12.771844 4.024587,-2.094758 0.443868,-1.917878 40.494674,-2.000279 39.021639,-0.08032 38.048419,-0.113459 41.448989,1.41263 2.22721,0.999514 3.84575,2.214667 5.40806,4.060227 2.32263,2.743696 3.76872,6.498154 3.78056,9.815483 0.005,1.107051 0.066,1.253958 0.46427,1.101085 5.05717,-1.940619 10.98482,0.434453 13.30445,5.330779 0.7714,1.628247 0.83352,1.965286 0.83352,4.521131 0,2.445848 -0.0806,2.933733 -0.70489,4.265691 -0.86193,1.838969 -2.71384,3.868307 -4.29609,4.707683 l -1.18001,0.626004 v 12.803938 c 0,11.28926 -0.0489,12.85285 -0.41333,13.21726 -0.34219,0.34221 -1.15683,0.41333 -4.73437,0.41333 -2.37658,0 -4.32106,0.0716 -4.32106,0.1592 0,0.0876 0.78825,2.69166 1.75167,5.78689 1.49763,4.8115 1.70824,5.72299 1.45226,6.28481 l -0.29942,0.65715 h -4.98426 c -3.84332,0 -5.06584,-0.0816 -5.34074,-0.35649 -0.19607,-0.19606 -2.06868,-3.09474 -4.16136,-6.44151 l -3.80488,-6.08502 -33.834043,-0.003 -33.834036,-0.003 -3.479398,5.58919 c -1.91367,3.07407 -3.767745,5.97388 -4.120166,6.44402 l -0.640766,0.85483 h -4.931414 c -3.484848,0 -5.023997,-0.0926 -5.247038,-0.31562 z m 10.751319,-5.40509 c 1.055699,-1.69978 2.491648,-4.01053 3.191,-5.13501 l 1.271548,-2.04451 -4.663313,0.0719 -4.66331,0.0718 -1.520788,4.86589 c -0.836433,2.67625 -1.521921,4.95468 -1.523307,5.06317 -0.0013,0.1085 1.345509,0.19727 2.9931,0.19727 h 2.995619 z m 90.907902,2.74216 c -0.0735,-0.19158 -0.81767,-2.49961 -1.65367,-5.12892 l -1.52,-4.78057 h -4.55546 c -2.50551,0 -4.55547,0.0752 -4.55547,0.16695 0,0.0918 1.39072,2.39469 3.0905,5.11747 l 3.09049,4.95052 3.11863,0.0113 c 2.4837,0.009 3.09144,-0.0594 2.98498,-0.33689 z m 6.65292,-25.14594 c 0,-14.071489 -0.15497,-12.950216 1.93434,-13.995913 4.69941,-2.352041 5.82866,-8.669718 2.20258,-12.322534 -4.03836,-4.068143 -10.41811,-2.871203 -12.81167,2.403656 -0.4935,1.08752 -0.51972,1.766136 -0.52521,13.589717 -0.005,8.064584 -0.10161,12.624124 -0.27806,12.953794 -0.26757,0.49998 -1.05676,0.50875 -45.756437,0.50875 -44.69967,0 -45.488862,-0.009 -45.756441,-0.50875 -0.176461,-0.32972 -0.272276,-4.80226 -0.272276,-12.709674 0,-13.951358 0.03047,-13.722729 -2.145935,-16.10407 -2.980497,-3.261125 -7.8653,-3.360776 -11.0906167,-0.226233 -1.4626589,1.421499 -2.0824194,2.806572 -2.217707,4.956246 -0.2129711,3.384072 1.382978,6.013544 4.6856267,7.72002 l 1.431381,0.739596 0.06825,12.800815 0.06825,12.80081 h 55.23195 55.231945 z m -11.96747,-3.04353 V 98.743159 H 68.260803 24.993809 l -0.074,3.405361 c -0.0407,1.87296 -0.0147,3.55993 0.05779,3.74884 0.107852,0.28106 7.98333,0.33138 43.341001,0.27693 l 43.20918,-0.0665 z m 0.18159,-13.479831 0.0814,-7.035814 0.72525,-1.548408 c 0.3989,-0.851611 1.13864,-2.005962 1.64389,-2.565209 0.87624,-0.969905 0.91863,-1.107187 0.91863,-2.975766 0,-6.248248 -3.27628,-11.025288 -8.97256,-13.082607 l -1.67983,-0.606687 -34.587294,-0.08062 c -23.851742,-0.05557 -35.362863,0.0089 -37.085992,0.20725 -3.326259,0.383223 -5.64774,1.503601 -7.83476,3.781149 -2.602388,2.710127 -3.729537,5.507067 -3.735052,9.268279 -0.0027,1.837324 0.07318,2.197839 0.553537,2.630213 1.011125,0.910124 2.146115,2.792642 2.639521,4.377961 0.418,1.343032 0.486117,2.480017 0.486117,8.113998 v 6.552093 h 43.382819 43.382814 z"
       id="path1" /></g></svg>
